<svg id="_x33_0" enable-background="new 0 0 64 64" height="512" viewBox="0 0 64 64" width="512" xmlns="http://www.w3.org/2000/svg"><g><path d="m24.149 44.437-2.379-.793-4.356 4.356 1.586 1.586z"/><path d="m14.879 49.879h2.243v2.243h-2.243z" transform="matrix(.707 -.707 .707 .707 -31.376 26.251)"/><path d="m10 49.414-5.581 5.581c.017.017.028.038.045.055l1.536 1.536 5.586-5.586z"/><path d="m21 30.764c0-1.405.547-2.726 1.54-3.719l2.132-2.131c.212-.212.328-.493.328-.793 0-.618-.503-1.121-1.121-1.121-2.932 0-5.477 2.086-6.051 4.959l-1.088 5.438c-.539 2.692-2.615 4.831-5.29 5.448l-3.024.698c-3.195.738-5.426 3.542-5.426 6.821v5.15c0 .607.121 1.193.327 1.745l19.13-19.13c-.918-.858-1.457-2.061-1.457-3.365z"/><path d="m43 16.414-24.149 24.149 2.379.793 23.356-23.356z"/><path d="m13 52.414-5.586 5.586 1.535 1.536c.017.017.038.029.055.046l5.582-5.582z"/><path d="m23.351 42.063 2.379.793 21.856-21.856-1.586-1.586z"/><path d="m19.649 42.937-2.379-.793-2.856 2.856 1.586 1.586z"/><path d="m58 3h-.343c-.802 0-1.556.312-2.122.878l-2.121 2.122-2.707-2.707-1.414 1.414 2.707 2.707-1.586 1.586-2.707-2.707-1.414 1.414 2.707 2.707-1.586 1.586-2.707-2.707-1.414 1.414 2.707 2.707-1.586 1.586 4.853 4.853c2.925-.995 5.034-3.613 5.375-6.686l.167-1.498c.169-1.522 1.45-2.669 2.981-2.669h.21c1.654 0 3-1.346 3-3s-1.346-3-3-3z"/><path d="m39.879 39c-.295 0-.584.12-.793.328l-2.318 2.318c-.86.861-2.051 1.354-3.268 1.354s-2.408-.493-3.268-1.354l-.232-.232-19.259 19.259c.552.206 1.138.327 1.744.327h7.11c3.633 0 6.698-2.837 6.979-6.459l.032-.422c.271-3.486 2.737-6.367 6.139-7.169l3.261-.77c2.908-.583 4.994-3.127 4.994-6.058 0-.619-.503-1.122-1.121-1.122zm-22.879 20c-.552 0-1-.448-1-1s.448-1 1-1 1 .448 1 1-.448 1-1 1zm4-1c-.552 0-1-.448-1-1s.448-1 1-1 1 .448 1 1-.448 1-1 1zm2-4c-.552 0-1-.448-1-1s.448-1 1-1 1 .448 1 1-.448 1-1 1z"/><path d="m11.879 46.878h2.243v2.243h-2.243z" transform="matrix(.707 -.707 .707 .707 -30.134 23.251)"/></g></svg>