<?xml version="1.0" encoding="UTF-8"?>
<svg xmlns="http://www.w3.org/2000/svg" viewBox="0 0 64 64" width="512" height="512"><g id="Layer_8" data-name="Layer 8"><circle cx="38" cy="30" r="1"/><circle cx="33" cy="35" r="1"/><circle cx="20" cy="40" r="1"/><circle cx="25" cy="35" r="1"/><circle cx="43" cy="25" r="1"/><path d="M42.914,18.5l-2.207-2.207-1.414,1.414L41.5,19.914,37.914,23.5l-2.207-2.207-1.414,1.414L36.5,24.914,32.914,28.5l-2.207-2.207-1.414,1.414L31.5,29.914l-3.8,3.8A2.951,2.951,0,0,1,28,35a3,3,0,0,1-3,3,2.951,2.951,0,0,1-1.285-.3L22.7,38.715A2.951,2.951,0,0,1,23,40a3,3,0,0,1-3,3,2.951,2.951,0,0,1-1.285-.3l-3.21,3.21a12.413,12.413,0,0,1-1.889,1.549,29.324,29.324,0,0,1-5,2.665l-.76-.76C5.3,47.53,3.116,46.742,2.313,47.545c-1.171,1.171,1.045,5.287,4.95,9.192s8.021,6.121,9.192,4.95c.8-.8.015-2.989-1.818-5.543l-.759-.759a29.327,29.327,0,0,1,2.664-5A12.358,12.358,0,0,1,18.091,48.5L30.3,36.285A2.965,2.965,0,0,1,30,35a3,3,0,0,1,3-3,2.951,2.951,0,0,1,1.285.3L35.3,31.285A2.951,2.951,0,0,1,35,30a3,3,0,0,1,3-3,2.951,2.951,0,0,1,1.285.3L40.3,26.285A2.951,2.951,0,0,1,40,25a3,3,0,0,1,3-3,2.951,2.951,0,0,1,1.285.3L45.3,21.285A2.951,2.951,0,0,1,45,20a3,3,0,0,1,3-3,2.951,2.951,0,0,1,1.285.3l3.3-3.3L50,11.414Z"/><path d="M60.293,3.707a.811.811,0,0,0-.991-.122L55.62,5.794,54.414,7,57,9.586,58.206,8.38,60.415,4.7A.811.811,0,0,0,60.293,3.707Z"/><rect x="52.379" y="8.671" width="2.243" height="3.657" transform="translate(8.245 40.906) rotate(-45)"/><circle cx="48" cy="20" r="1"/><path d="M28.293,31.707l1.414-1.414L27.414,28,31,24.414l2.293,2.293,1.414-1.414L32.414,23,36,19.414l2.293,2.293,1.414-1.414L37.414,18,41,14.414l2.293,2.293,1.414-1.414-3-3a1,1,0,0,0-1.414,0l-15,15a1,1,0,0,0,0,1.414Z"/></g></svg>
