<svg id="Capa_1" enable-background="new 0 0 512 512" height="512" viewBox="0 0 512 512" width="512" xmlns="http://www.w3.org/2000/svg"><path d="m497 20.382h-268.117c-8.284 0-15 6.716-15 15s6.716 15 15 15c44.887 0 81.749 34.423 84.919 77.889-26.637-14.524-57.148-22.784-89.551-22.784-103.614 0-187.91 84.424-187.91 188.194 0 36.35 10.354 70.318 28.249 99.123-13.425-1.185-24.381-3.632-41.672-7.493l-4.659-1.039c-4.442-.989-9.093.093-12.643 2.939-3.55 2.848-5.616 7.152-5.616 11.703v77.704c0 4.551 2.066 8.855 5.616 11.702 2.687 2.155 6.004 3.298 9.385 3.298 1.085 0 2.178-.118 3.258-.358l4.667-1.041c25.651-5.729 37.358-8.343 63.873-8.343h137.451c103.614 0 187.91-84.423 187.91-188.194l-.327-159.329c0-46.301 38.206-83.97 85.166-83.97 8.284 0 15-6.716 15-15s-6.715-15.001-14.999-15.001zm-242.259 233.662c-8.284 0-15 6.716-15 15v9.637h-31.999v-9.637c0-8.284-6.716-15-15-15s-15 6.716-15 15v9.637h-41.934c7.148-42.439 44.083-74.871 88.443-74.871s81.295 32.432 88.443 74.871h-42.953v-9.637c0-8.284-6.716-15-15-15zm-76.999 54.638v6.872c0 8.284 6.716 15 15 15s15-6.716 15-15v-6.872h31.999v6.872c0 8.284 6.716 15 15 15s15-6.716 15-15v-6.872h42.953c-7.148 42.439-44.083 74.871-88.442 74.871s-81.295-32.432-88.442-74.871zm-90.944 143.193c-24.251 0-38.317 2.129-56.798 6.067v-40.354c18.481 3.938 32.546 6.067 56.798 6.067h1.682c10.201 10.683 21.644 20.166 34.092 28.219h-35.774zm295.036-317.522.133 167.147c-4.082 83.611-73.261 150.375-157.716 150.375-87.072 0-157.91-70.965-157.91-158.194s70.838-158.194 157.91-158.194c33.326 0 64.272 10.397 89.78 28.122l-.032 50.85c-21.95-24.908-54.046-40.648-89.748-40.648-66.002 0-119.699 53.774-119.699 119.871s53.697 119.871 119.699 119.871c65.998 0 119.692-53.767 119.699-119.858 0-.001 0-.002 0-.003l.1-159.338c0-33.194-14.417-63.122-37.376-83.97h112.536c-22.959 20.847-37.376 50.775-37.376 83.969z"/></svg>