<?xml version="1.0" encoding="iso-8859-1"?>
<!-- Generator: Adobe Illustrator 19.0.0, SVG Export Plug-In . SVG Version: 6.00 Build 0)  -->
<svg version="1.1" id="Capa_1" xmlns="http://www.w3.org/2000/svg" xmlns:xlink="http://www.w3.org/1999/xlink" x="0px" y="0px"
	 viewBox="0 0 477.867 477.867" style="enable-background:new 0 0 477.867 477.867;" xml:space="preserve">
<g>
	<g>
		<path d="M443.733,426.667c-9.422-0.009-17.057-7.645-17.067-17.067v-128H409.6v128c-0.009,9.422-7.645,17.057-17.067,17.067H384
			v51.2h51.2c23.553-0.028,42.639-19.114,42.667-42.667v-8.533H443.733z"/>
	</g>
</g>
<g>
	<g>
		<path d="M170.667,281.6v128c-0.009,9.422-7.645,17.057-17.067,17.067h-8.533v51.2H204.8V281.6H170.667z"/>
	</g>
</g>
<g>
	<g>
		<path d="M221.867,42.667h-179.2v51.2h179.212L221.867,42.667z M76.8,76.8h-8.533c-4.713,0-8.533-3.82-8.533-8.533
			s3.82-8.533,8.533-8.533H76.8c4.713,0,8.533,3.82,8.533,8.533S81.513,76.8,76.8,76.8z M170.667,76.8h-59.733
			c-4.713,0-8.533-3.82-8.533-8.533s3.82-8.533,8.533-8.533h59.733c4.713,0,8.533,3.82,8.533,8.533S175.38,76.8,170.667,76.8z"/>
	</g>
</g>
<g>
	<g>
		<circle cx="55.467" cy="217.599" r="12.8"/>
	</g>
</g>
<g>
	<g>
		<rect x="273.067" y="281.599" width="34.133" height="128"/>
	</g>
</g>
<g>
	<g>
		<path d="M273.067,426.667c-9.422-0.009-17.057-7.645-17.067-17.067v-128h-34.133v196.267H281.6v-51.2H273.067z"/>
	</g>
</g>
<g>
	<g>
		<path d="M358.4,426.667c-9.422-0.009-17.057-7.645-17.067-17.067v-128h-17.067v128c-0.009,9.422-7.645,17.057-17.067,17.067
			h-8.533v51.2h68.267v-51.2H358.4z"/>
	</g>
</g>
<g>
	<g>
		<rect x="358.4" y="281.599" width="34.133" height="128"/>
	</g>
</g>
<g>
	<g>
		<rect x="443.733" y="281.599" width="34.133" height="128"/>
	</g>
</g>
<g>
	<g>
		<path d="M34.133,426.667c-9.422-0.009-17.057-7.645-17.067-17.067v-128H0v153.6c0.028,23.553,19.114,42.639,42.667,42.667v-51.2
			H34.133z"/>
	</g>
</g>
<g>
	<g>
		<circle cx="226.133" cy="217.599" r="12.8"/>
	</g>
</g>
<g>
	<g>
		<path d="M435.2,0H42.667C19.114,0.028,0.028,19.114,0,42.667v221.867h477.867V42.667C477.839,19.114,458.753,0.028,435.2,0z
			 M25.6,42.667c0.009-9.422,7.645-17.057,17.067-17.067h179.2c9.422,0.009,17.057,7.645,17.067,17.067v51.2
			c-0.009,9.422-7.645,17.057-17.067,17.067h-179.2c-9.422-0.009-17.057-7.645-17.067-17.067V42.667z M34.133,136.533H230.4
			c4.713,0,8.533,3.82,8.533,8.533s-3.82,8.533-8.533,8.533H34.133c-4.713,0-8.533-3.82-8.533-8.533S29.421,136.533,34.133,136.533z
			 M55.467,247.467c-16.495,0-29.867-13.372-29.867-29.867c0-16.495,13.372-29.867,29.867-29.867
			c16.495,0,29.867,13.372,29.867,29.867C85.313,234.087,71.953,247.447,55.467,247.467z M140.8,247.467
			c-16.495,0-29.867-13.372-29.867-29.867c0-16.495,13.372-29.867,29.867-29.867c16.495,0,29.867,13.372,29.867,29.867
			C170.647,234.087,157.287,247.447,140.8,247.467z M226.133,247.467c-16.495,0-29.867-13.372-29.867-29.867
			c0-16.495,13.372-29.867,29.867-29.867S256,201.105,256,217.6C255.98,234.087,242.62,247.447,226.133,247.467z M366.933,204.8
			c-42.415,0-76.8-34.385-76.8-76.8s34.385-76.8,76.8-76.8s76.8,34.385,76.8,76.8C443.684,170.395,409.328,204.751,366.933,204.8z"
			/>
	</g>
</g>
<g>
	<g>
		<rect x="34.133" y="281.599" width="34.133" height="128"/>
	</g>
</g>
<g>
	<g>
		<path d="M426.054,119.535c-3.783-26.212-24.375-46.804-50.587-50.587V128c0,4.713-3.82,8.533-8.533,8.533s-8.533-3.82-8.533-8.533
			V68.948c-32.651,4.713-55.3,35.003-50.587,67.654s35.003,55.3,67.654,50.587C408.118,182.476,430.767,152.187,426.054,119.535z"/>
	</g>
</g>
<g>
	<g>
		<path d="M119.467,426.667c-9.422-0.009-17.057-7.645-17.067-17.067v-128H85.333v128c-0.009,9.422-7.645,17.057-17.067,17.067
			h-8.533v51.2H128v-51.2H119.467z"/>
	</g>
</g>
<g>
	<g>
		<rect x="119.467" y="281.599" width="34.133" height="128"/>
	</g>
</g>
<g>
	<g>
		<circle cx="140.8" cy="217.599" r="12.8"/>
	</g>
</g>
<g>
</g>
<g>
</g>
<g>
</g>
<g>
</g>
<g>
</g>
<g>
</g>
<g>
</g>
<g>
</g>
<g>
</g>
<g>
</g>
<g>
</g>
<g>
</g>
<g>
</g>
<g>
</g>
<g>
</g>
</svg>
