<?xml version="1.0" encoding="iso-8859-1"?>
<!-- Generator: Adobe Illustrator 19.0.0, SVG Export Plug-In . SVG Version: 6.00 Build 0)  -->
<svg version="1.1" id="Layer_1" xmlns="http://www.w3.org/2000/svg" xmlns:xlink="http://www.w3.org/1999/xlink" x="0px" y="0px"
	 viewBox="0 0 512 512" style="enable-background:new 0 0 512 512;" xml:space="preserve">
<g>
	<g>
		<path d="M468.826,97.292v103.374h-55.943V48.647h-36.484v152.019h-55.943V0.001h-36.484v200.665h-55.943V0h-36.484v200.666
			h-55.943V48.647H99.117v152.019H43.174V97.293H6.689V512h498.621V97.292H468.826z M99.117,334.442H43.174v-36.484h55.943V334.442z
			 M135.602,297.958h55.943v36.484h-55.943V297.958z M228.025,475.516H191.54V370.927h36.484V475.516z M228.03,297.958h55.943
			v36.484H228.03V297.958z M320.452,475.516h-36.484V370.927h36.484V475.516z M376.399,334.442h-55.943v-36.484h55.943V334.442z
			 M468.826,334.442h-55.943v-36.484h55.943V334.442z"/>
	</g>
</g>
<g>
</g>
<g>
</g>
<g>
</g>
<g>
</g>
<g>
</g>
<g>
</g>
<g>
</g>
<g>
</g>
<g>
</g>
<g>
</g>
<g>
</g>
<g>
</g>
<g>
</g>
<g>
</g>
<g>
</g>
</svg>
