<svg id="Layer_1" height="512" viewBox="0 0 512 512" width="512" xmlns="http://www.w3.org/2000/svg" data-name="Layer 1"><path d="m74.213 47.156 18.327-18.327 2.2 2.2a5 5 0 0 0 7.07-7.071l-11.475-11.476a5 5 0 1 0 -7.07 7.071l2.2 2.2-18.322 18.332z"/><path d="m27.481 103.3a5 5 0 0 0 3.536-8.536l-2.206-2.2 18.327-18.333-7.071-7.072-18.327 18.327-2.2-2.2a5 5 0 0 0 -7.07 7.072l11.481 11.481a4.984 4.984 0 0 0 3.53 1.461z"/><path d="m305.7 312.411-39.332-39.356-10.6 10.567a4.92 4.92 0 0 1 -3.544 1.378h-.066a4.849 4.849 0 0 1 -3.561-1.471l-66.909-70.407c-11.818 15.692-18.416 34.063-18.653 52.27a74.1 74.1 0 0 0 21.72 53.8c4.454 1.934 10.1 4.786 13.235 7.918a31.729 31.729 0 0 1 9.186 25.332c-.01.1-.022.2-.036.3a2.851 2.851 0 0 0 5.692.062c.349-6.021 3.647-10.538 9.045-12.321 12.262-4.046 30.731 6.883 49.409 29.244 16.615 19.89 23.252 38.608 17.755 50.072a14.193 14.193 0 0 1 -13.318 8.216c-.118 0-.234 0-.351 0a5.053 5.053 0 0 1 -.934-.106 2.853 2.853 0 0 0 -1.506 5.492c.1.013.195.03.292.049a31.821 31.821 0 0 1 25.79 30.37c6.614 6.81 38.4 37.183 79.249 37.183h.159c23.409 0 45.94-10 67.162-29.573l-98.633-89.46a5.007 5.007 0 0 1 -.177-7.244l10.605-10.605-44.612-44.613-9.591 9.59a5 5 0 0 1 -7.071-7.081zm7.027 40.8a5 5 0 1 1 -6.592 7.519 3.42 3.42 0 0 0 -4.826.317c-1.621 1.849.341 4.7.981 5.535 3.112 4.042 7.152 9.809 11.059 15.386 3.72 5.312 7.568 10.805 10.453 14.57 4.685 6.119 4.909 13.27.57 18.219a13.435 13.435 0 0 1 -18.938 1.244 5 5 0 0 1 6.591-7.52 3.427 3.427 0 0 0 4.829-.317c1.612-1.839-.352-4.709-.992-5.545-3.013-3.934-6.922-9.516-10.7-14.913-3.842-5.487-7.816-11.161-10.791-15.022-4.7-6.108-4.931-13.264-.577-18.229a13.434 13.434 0 0 1 18.929-1.24z"/><path d="m88.471 76.414-38.233-52.164-25.656 25.656 52.164 38.233a5.087 5.087 0 0 1 .671.591l174.9 184.278 21.023-21.023-184.278-174.9a5.024 5.024 0 0 1 -.591-.671z"/><path d="m463.844 298.961a31.816 31.816 0 0 1 -30.348-25.79c-.018-.1-.034-.2-.048-.3a2.851 2.851 0 0 0 -5.489 1.509 4.968 4.968 0 0 1 .106.934 14.229 14.229 0 0 1 -8.212 13.669c-11.463 5.5-30.182-1.139-50.073-17.754-22.361-18.678-33.294-37.149-29.244-49.41 1.783-5.4 6.3-8.7 12.392-9.048a2.855 2.855 0 0 0 2.569-3.045 2.854 2.854 0 0 0 -2.707-2.644c-.1.015-.195.027-.294.036a31.736 31.736 0 0 1 -25.333-9.185c-3.13-3.13-5.983-8.781-7.918-13.235-14.831-14.489-33.382-22-53.8-21.72-18.084.236-36.329 6.748-51.951 18.414l70.455 66.869a5 5 0 0 1 .093 7.162l-10.605 10.6 39.332 39.332 9.171-9.171a5 5 0 0 1 7.07 7.071l-9.17 9.171 44.612 44.613 10.607-10.606a5 5 0 0 1 7.239.177l89.425 98.619c19.39-21.129 29.231-43.558 29.277-66.86.079-40.923-30.33-72.777-37.156-79.408zm-44.556 16.213a13.332 13.332 0 0 1 -4.545 9.211 12.341 12.341 0 0 1 -8.253 3.106 16.53 16.53 0 0 1 -9.965-3.676c-3.763-2.883-9.254-6.728-14.562-10.447-5.581-3.909-11.351-7.951-15.394-11.064-.831-.64-3.684-2.6-5.536-.982a3.426 3.426 0 0 0 -.316 4.827 5 5 0 0 1 -7.52 6.591 13.436 13.436 0 0 1 1.243-18.94c4.964-4.353 12.122-4.128 18.231.578 3.863 2.976 9.54 6.951 15.029 10.8 5.4 3.779 10.973 7.687 14.905 10.7.835.64 3.707 2.6 5.546.99a3.421 3.421 0 0 0 .317-4.827 5 5 0 0 1 7.519-6.592 13.335 13.335 0 0 1 3.301 9.725z"/><path d="m457.688 459.038a5.1 5.1 0 0 1 .518-.608l.278-.278a5.1 5.1 0 0 1 .608-.518q2.921-2.6 5.632-5.225l-86.309-95.184-20.857 20.857 95.179 86.306q2.489-2.588 4.951-5.35z"/></svg>