<?xml version="1.0" encoding="iso-8859-1"?>
<!-- Generator: Adobe Illustrator 19.0.0, SVG Export Plug-In . SVG Version: 6.00 Build 0)  -->
<svg version="1.1" id="Capa_1" xmlns="http://www.w3.org/2000/svg" xmlns:xlink="http://www.w3.org/1999/xlink" x="0px" y="0px"
	 viewBox="0 0 60 60" style="enable-background:new 0 0 60 60;" xml:space="preserve">
<g>
	<path d="M6.207,1.293C6.02,1.105,5.765,1,5.5,1h-2C3.235,1,2.98,1.105,2.793,1.293l-1,1C1.605,2.48,1.5,2.735,1.5,3v4
		c0,0.265,0.105,0.52,0.293,0.707l1,1C2.98,8.895,3.235,9,3.5,9v47c0,0.552,0.448,1,1,1s1-0.448,1-1V9
		c0.265,0,0.52-0.105,0.707-0.293l1-1C7.395,7.52,7.5,7.265,7.5,7V3c0-0.265-0.105-0.52-0.293-0.707L6.207,1.293z"/>
	<path d="M13.207,51.293C13.02,51.105,12.765,51,12.5,51V4c0-0.552-0.448-1-1-1s-1,0.448-1,1v47c-0.265,0-0.52,0.105-0.707,0.293
		l-1,1C8.605,52.48,8.5,52.735,8.5,53v4c0,0.265,0.105,0.52,0.293,0.707l1,1C9.98,58.895,10.235,59,10.5,59h2
		c0.265,0,0.52-0.105,0.707-0.293l1-1C14.395,57.52,14.5,57.265,14.5,57v-4c0-0.265-0.105-0.52-0.293-0.707L13.207,51.293z"/>
	<path d="M57.5,49h-4.687l-0.069-1H56.5c0.552,0,1-0.448,1-1v-6c0-0.552-0.448-1-1-1h-4.308l-0.069-1H55.5c0.552,0,1-0.448,1-1v-6
		c0-0.552-0.448-1-1-1h-3.929l-0.069-1H54.5c0.552,0,1-0.448,1-1v-6c0-0.552-0.448-1-1-1h-3.549l-0.069-1H53.5c0.552,0,1-0.448,1-1
		v-6c0-0.552-0.448-1-1-1h-3.17l-0.069-1H52.5c0.552,0,1-0.448,1-1V5c0-0.552-0.448-1-1-1h-2.791l-0.212-3.069
		C49.461,0.407,49.025,0,48.5,0h-3c-0.277,0-0.542,0.115-0.731,0.318s-0.286,0.475-0.267,0.751L44.705,4H34.295l0.202-2.931
		c0.019-0.276-0.078-0.548-0.267-0.751S33.777,0,33.5,0h-3c-0.525,0-0.961,0.407-0.998,0.931L29.291,4H26.5c-0.552,0-1,0.448-1,1v6
		c0,0.552,0.448,1,1,1h2.239l-0.069,1H25.5c-0.552,0-1,0.448-1,1v6c0,0.552,0.448,1,1,1h2.618l-0.069,1H24.5c-0.552,0-1,0.448-1,1v6
		c0,0.552,0.448,1,1,1h2.998l-0.069,1H23.5c-0.552,0-1,0.448-1,1v6c0,0.552,0.448,1,1,1h3.377l-0.069,1H22.5c-0.552,0-1,0.448-1,1v6
		c0,0.552,0.448,1,1,1h3.756l-0.069,1H21.5c-0.552,0-1,0.448-1,1v6c0,0.552,0.448,1,1,1h4.136l-0.133,1.931
		c-0.019,0.276,0.077,0.548,0.267,0.751C25.958,59.885,26.223,60,26.5,60h3c0.525,0,0.961-0.407,0.998-0.931L30.64,57H48.36
		l0.143,2.069C48.539,59.593,48.975,60,49.5,60h3c0.277,0,0.542-0.115,0.731-0.318c0.189-0.203,0.286-0.475,0.267-0.751L53.364,57
		H57.5c0.552,0,1-0.448,1-1v-6C58.5,49.448,58.052,49,57.5,49z M50.5,26c0,0.552-0.448,1-1,1s-1-0.448-1-1c0-0.552,0.448-1,1-1
		S50.5,25.448,50.5,26z M47.5,7c0.552,0,1,0.448,1,1c0,0.552-0.448,1-1,1s-1-0.448-1-1C46.5,7.448,46.948,7,47.5,7z M47.187,40
		H31.813l0.069-1h15.237L47.187,40z M33.744,12h11.512l0.069,1h-11.65L33.744,12z M33.123,21h12.754l0.069,1H33.054L33.123,21z
		 M46.498,30l0.069,1H32.433l0.069-1H46.498z M31.5,7c0.552,0,1,0.448,1,1c0,0.552-0.448,1-1,1s-1-0.448-1-1
		C30.5,7.448,30.948,7,31.5,7z M28.5,54c-0.552,0-1-0.448-1-1c0-0.552,0.448-1,1-1s1,0.448,1,1C29.5,53.552,29.052,54,28.5,54z
		 M28.5,45c-0.552,0-1-0.448-1-1c0-0.552,0.448-1,1-1s1,0.448,1,1C29.5,44.552,29.052,45,28.5,45z M29.5,36c-0.552,0-1-0.448-1-1
		c0-0.552,0.448-1,1-1s1,0.448,1,1C30.5,35.552,30.052,36,29.5,36z M29.5,27c-0.552,0-1-0.448-1-1c0-0.552,0.448-1,1-1s1,0.448,1,1
		C30.5,26.552,30.052,27,29.5,27z M30.5,18c-0.552,0-1-0.448-1-1c0-0.552,0.448-1,1-1s1,0.448,1,1C31.5,17.552,31.052,18,30.5,18z
		 M31.192,49l0.069-1h16.478l0.069,1H31.192z M47.5,17c0-0.552,0.448-1,1-1s1,0.448,1,1c0,0.552-0.448,1-1,1S47.5,17.552,47.5,17z
		 M48.5,35c0-0.552,0.448-1,1-1s1,0.448,1,1c0,0.552-0.448,1-1,1S48.5,35.552,48.5,35z M50.5,54c-0.552,0-1-0.448-1-1
		c0-0.552,0.448-1,1-1s1,0.448,1,1C51.5,53.552,51.052,54,50.5,54z M50.5,45c-0.552,0-1-0.448-1-1c0-0.552,0.448-1,1-1s1,0.448,1,1
		C51.5,44.552,51.052,45,50.5,45z"/>
</g>
<g>
</g>
<g>
</g>
<g>
</g>
<g>
</g>
<g>
</g>
<g>
</g>
<g>
</g>
<g>
</g>
<g>
</g>
<g>
</g>
<g>
</g>
<g>
</g>
<g>
</g>
<g>
</g>
<g>
</g>
</svg>
