<svg width="60" height="60" viewBox="0 0 60 60" fill="none" xmlns="http://www.w3.org/2000/svg">
<circle cx="30" cy="30" r="29" stroke="white" stroke-width="2"/>
<path fill-rule="evenodd" clip-rule="evenodd" d="M30.5 4C15.8587 4 4 15.635 4 30C4 41.505 11.5856 51.2224 22.1194 54.6676C23.4444 54.8948 23.9412 54.1148 23.9412 53.4324C23.9412 52.8148 23.9081 50.7676 23.9081 48.59C17.25 49.7924 15.5275 46.9976 14.9975 45.5348C14.6994 44.7876 13.4075 42.48 12.2812 41.8625C11.3537 41.375 10.0287 40.1725 12.2481 40.14C14.335 40.1075 15.8256 42.025 16.3225 42.805C18.7075 46.7376 22.5169 45.6324 24.0406 44.95C24.2725 43.26 24.9681 42.1225 25.73 41.4725C19.8337 40.8225 13.6725 38.58 13.6725 28.635C13.6725 25.8075 14.6994 23.4675 16.3887 21.6475C16.1237 20.9975 15.1962 18.3325 16.6537 14.7575C16.6537 14.7575 18.8731 14.075 23.9412 17.4225C26.0612 16.8375 28.3137 16.545 30.5662 16.545C32.8187 16.545 35.0712 16.8375 37.1912 17.4225C42.2594 14.0425 44.4787 14.7575 44.4787 14.7575C45.9365 18.3325 45.0089 20.9975 44.7437 21.6475C46.433 23.4675 47.46 25.775 47.46 28.635C47.46 38.6125 41.2656 40.8225 35.3694 41.4725C36.33 42.285 37.1581 43.845 37.1581 46.2824C37.1581 49.76 37.125 52.5548 37.125 53.4324C37.125 54.1148 37.6219 54.9276 38.9469 54.6676C44.2076 52.9252 48.7789 49.608 52.0176 45.1828C55.2559 40.7577 56.9988 35.4476 57 30C57 15.635 45.1415 4 30.5 4Z" fill="white"/>
</svg>
