<svg width="60" height="60" viewBox="0 0 60 60" fill="none" xmlns="http://www.w3.org/2000/svg">
<path d="M26.1905 8.33892L23.3908 11.7317L22.3727 19.6482C21.397 27.1877 21.397 27.6724 22.1182 28.4802C22.9241 29.3957 22.712 30.3112 24.324 17.9787C24.6209 15.7707 25.0876 13.8858 25.3845 13.7243C25.7663 13.5627 25.8935 15.8246 25.8935 23.4718C25.8935 32.6808 25.936 33.4347 26.7419 34.3502C27.5904 35.3196 27.5904 35.2657 27.5904 24.495V13.6166H29.2872C30.687 13.6166 30.984 13.7781 30.984 14.6936C30.984 15.3937 30.687 15.7707 30.1356 15.7707C29.5841 15.7707 29.2872 16.1477 29.2872 16.8478C29.2872 17.5479 29.5841 17.9249 30.1356 17.9249C30.687 17.9249 30.984 18.3018 30.984 19.0019C30.984 19.702 30.687 20.079 30.1356 20.079C29.5841 20.079 29.2872 20.456 29.2872 21.1561C29.2872 21.8562 29.5841 22.2332 30.1356 22.2332C30.687 22.2332 30.984 22.6101 30.984 23.3102C30.984 24.0103 30.687 24.3873 30.1356 24.3873C29.5841 24.3873 29.2872 24.7643 29.2872 25.4644C29.2872 26.1645 29.5841 26.5414 30.1356 26.5414C30.687 26.5414 30.984 26.9184 30.984 27.6185C30.984 28.3186 30.687 28.6956 30.1356 28.6956C29.5841 28.6956 29.2872 29.0726 29.2872 29.7727C29.2872 30.4728 29.5841 30.8497 30.1356 30.8497C30.687 30.8497 30.984 31.2267 30.984 31.9268C30.984 32.6269 30.687 33.0039 30.1356 33.0039C29.5841 33.0039 29.2872 33.3809 29.2872 34.0809C29.2872 34.781 29.5841 35.158 30.1356 35.158C30.687 35.158 30.984 35.535 30.984 36.2351C30.984 37.0968 30.687 37.3122 29.372 37.3122C27.8873 37.3122 27.4207 36.8275 22.6696 30.6882C19.4033 26.4876 17.2823 23.3102 16.7732 21.8023C16.1369 19.9174 15.7976 19.5405 15.1188 19.7559C14.6522 19.9174 13.9311 19.6482 13.5069 19.1635C12.913 18.4634 12.6161 18.4095 12.2343 18.8942C11.8525 19.3789 11.9373 19.7559 12.4888 20.5637C12.9554 21.2099 13.1251 22.0177 12.9978 22.664C12.7857 23.5256 13.0827 23.9026 14.7371 24.8181C15.8824 25.4105 17.7065 27.1338 18.8518 28.5879L20.888 31.2806L19.573 41.3512L18.2579 51.368L19.1063 52.9836C20.1668 54.8146 21.397 55.03 22.1606 53.4682C22.6696 52.445 23.1787 52.3912 29.2872 52.3912C35.3956 52.3912 35.9047 52.445 36.4137 53.4682C37.1773 55.03 38.4075 54.8146 39.468 52.9297C40.274 51.4757 40.3164 51.0448 39.9346 48.2983C39.4256 44.9055 39.5528 44.367 40.5285 45.3902C41.0375 45.9287 41.3345 45.9287 41.6738 45.4979C42.3101 44.6901 40.9527 42.6975 39.8073 42.6975C38.662 42.6975 38.7893 40.6511 40.0194 40.4357C41.3345 40.2203 41.2072 38.7124 39.8073 38.4969C38.4923 38.2815 38.7044 39.3586 36.6683 23.6872L35.0987 11.4086L32.3838 8.23122C30.8991 6.45405 29.4993 5 29.3296 5C29.1175 5 27.7176 6.5079 26.1905 8.33892ZM30.984 9.57756L32.4262 11.4624H29.2872H26.1481L27.5904 9.57756C28.3963 8.55434 29.1599 7.69268 29.2872 7.69268C29.4144 7.69268 30.178 8.55434 30.984 9.57756ZM35.2684 25.6259L36.7955 37.3122H34.7169H32.6808V25.4105C32.6808 9.84682 33.1898 9.90068 35.2684 25.6259ZM24.1967 35.4273L25.639 37.3122H23.7301H21.8212L21.9909 35.4273C22.0757 34.4041 22.2878 33.5424 22.4575 33.5424C22.6272 33.5424 23.3908 34.4041 24.1967 35.4273ZM37.8136 44.9594L38.4923 50.237H29.2872H20.082L20.6759 45.4979C21.0152 42.9129 21.3546 40.4895 21.4394 40.1126C21.6091 39.574 23.3908 39.4663 29.372 39.574L37.0925 39.7356L37.8136 44.9594Z" fill="white"/>
<circle cx="30" cy="30" r="29" stroke="white" stroke-width="2"/>
</svg>
