<svg width="60" height="60" viewBox="0 0 60 60" fill="none" xmlns="http://www.w3.org/2000/svg">
<circle cx="30" cy="30" r="29" stroke="white" stroke-width="2"/>
<path d="M27.3077 12.8053L21.9437 19.5631H18.7908C14.0819 19.5631 14 19.7711 14 28.9201C14 38.0691 14.0819 38.277 18.7908 38.277H21.9437L27.3077 45.0348C32.9583 52.1045 33.7772 52.6764 35.2923 50.753C36.0703 49.7653 36.1112 49.0375 36.1112 29.0241C36.1112 11.1419 36.0293 8.17885 35.4561 7.19117C34.1458 4.85194 33.0812 5.5797 27.3077 12.8053ZM34.3914 28.6602C34.4324 42.0198 34.3505 49.0375 34.0639 49.4014C33.7772 49.7653 31.8528 47.686 27.9219 42.6956L22.1893 35.418V28.9201V22.4222L27.799 15.3005C30.911 11.3498 33.6135 8.17885 33.8591 8.28282C34.1048 8.38678 34.3096 15.6644 34.3914 28.6602ZM20.5515 28.9201V36.2497L18.2175 36.0938L15.8426 35.9378L15.7198 29.4919C15.6788 25.9051 15.7198 22.6821 15.8017 22.3182C15.9654 21.8504 16.7844 21.6425 18.2994 21.6425H20.5515V28.9201Z" fill="white"/>
<path d="M39.5509 23.254C39.4281 23.5659 40.1651 24.9694 41.2707 26.373L43.2361 28.9201L41.2298 31.5192C39.6738 33.5465 39.3053 34.2223 39.7147 34.7421C40.1242 35.262 40.6565 34.7941 42.2534 32.8188L44.3008 30.2716L46.3481 32.8188C47.945 34.7941 48.4773 35.262 48.8868 34.7421C49.2962 34.2223 48.9277 33.5465 47.3717 31.5192L45.3654 28.9201L47.3717 26.321C48.9277 24.2937 49.2962 23.6179 48.8868 23.0981C48.4773 22.5782 47.945 23.0461 46.3481 25.0214L44.3008 27.5686L42.3353 25.1254C40.247 22.5263 40.0014 22.3703 39.5509 23.254Z" fill="white"/>
</svg>
