
<svg width="60" height="60" viewBox="0 0 60 60" fill="none" xmlns="http://www.w3.org/2000/svg">
<path d="M19.7695 27H18.6797V19.7754L16.4941 20.5781V19.5938L19.5996 18.4277H19.7695V27ZM28.2949 23.3613C28.2949 24.6309 28.0781 25.5742 27.6445 26.1914C27.2109 26.8086 26.5332 27.1172 25.6113 27.1172C24.7012 27.1172 24.0273 26.8164 23.5898 26.2148C23.1523 25.6094 22.9258 24.707 22.9102 23.5078V22.0605C22.9102 20.8066 23.127 19.875 23.5605 19.2656C23.9941 18.6562 24.6738 18.3516 25.5996 18.3516C26.5176 18.3516 27.1934 18.6465 27.627 19.2363C28.0605 19.8223 28.2832 20.7285 28.2949 21.9551V23.3613ZM27.2109 21.8789C27.2109 20.9609 27.082 20.293 26.8242 19.875C26.5664 19.4531 26.1582 19.2422 25.5996 19.2422C25.0449 19.2422 24.6406 19.4512 24.3867 19.8691C24.1328 20.2871 24.002 20.9297 23.9941 21.7969V23.5312C23.9941 24.4531 24.127 25.1348 24.3926 25.5762C24.6621 26.0137 25.0684 26.2324 25.6113 26.2324C26.1465 26.2324 26.543 26.0254 26.8008 25.6113C27.0625 25.1973 27.1992 24.5449 27.2109 23.6543V21.8789ZM35.0332 23.3613C35.0332 24.6309 34.8164 25.5742 34.3828 26.1914C33.9492 26.8086 33.2715 27.1172 32.3496 27.1172C31.4395 27.1172 30.7656 26.8164 30.3281 26.2148C29.8906 25.6094 29.6641 24.707 29.6484 23.5078V22.0605C29.6484 20.8066 29.8652 19.875 30.2988 19.2656C30.7324 18.6562 31.4121 18.3516 32.3379 18.3516C33.2559 18.3516 33.9316 18.6465 34.3652 19.2363C34.7988 19.8223 35.0215 20.7285 35.0332 21.9551V23.3613ZM33.9492 21.8789C33.9492 20.9609 33.8203 20.293 33.5625 19.875C33.3047 19.4531 32.8965 19.2422 32.3379 19.2422C31.7832 19.2422 31.3789 19.4512 31.125 19.8691C30.8711 20.2871 30.7402 20.9297 30.7324 21.7969V23.5312C30.7324 24.4531 30.8652 25.1348 31.1309 25.5762C31.4004 26.0137 31.8066 26.2324 32.3496 26.2324C32.8848 26.2324 33.2812 26.0254 33.5391 25.6113C33.8008 25.1973 33.9375 24.5449 33.9492 23.6543V21.8789ZM36.3281 20.1094C36.3281 19.5977 36.4902 19.1758 36.8145 18.8438C37.1426 18.5117 37.5625 18.3457 38.0742 18.3457C38.5938 18.3457 39.0137 18.5137 39.334 18.8496C39.6582 19.1816 39.8203 19.6133 39.8203 20.1445V20.5605C39.8203 21.0762 39.6562 21.498 39.3281 21.8262C39.0039 22.1504 38.5898 22.3125 38.0859 22.3125C37.5781 22.3125 37.1582 22.1504 36.8262 21.8262C36.4941 21.498 36.3281 21.0625 36.3281 20.5195V20.1094ZM37.1367 20.5605C37.1367 20.8652 37.2227 21.1172 37.3945 21.3164C37.5664 21.5117 37.7969 21.6094 38.0859 21.6094C38.3633 21.6094 38.5859 21.5137 38.7539 21.3223C38.9258 21.1309 39.0117 20.8691 39.0117 20.5371V20.1094C39.0117 19.8047 38.9277 19.5527 38.7598 19.3535C38.5918 19.1543 38.3633 19.0547 38.0742 19.0547C37.7852 19.0547 37.5566 19.1543 37.3887 19.3535C37.2207 19.5527 37.1367 19.8125 37.1367 20.1328V20.5605ZM40.4824 24.9082C40.4824 24.3965 40.6445 23.9766 40.9688 23.6484C41.2969 23.3164 41.7168 23.1504 42.2285 23.1504C42.7402 23.1504 43.1602 23.3145 43.4883 23.6426C43.8164 23.9707 43.9805 24.4062 43.9805 24.9492V25.3652C43.9805 25.877 43.8164 26.2988 43.4883 26.6309C43.1641 26.959 42.748 27.123 42.2402 27.123C41.7324 27.123 41.3125 26.9609 40.9805 26.6367C40.6484 26.3086 40.4824 25.873 40.4824 25.3301V24.9082ZM41.291 25.3652C41.291 25.6738 41.377 25.9277 41.5488 26.127C41.7207 26.3223 41.9512 26.4199 42.2402 26.4199C42.5215 26.4199 42.7461 26.3242 42.9141 26.1328C43.082 25.9375 43.166 25.6738 43.166 25.3418V24.9082C43.166 24.5996 43.0801 24.3477 42.9082 24.1523C42.7402 23.957 42.5137 23.8594 42.2285 23.8594C41.9512 23.8594 41.7246 23.957 41.5488 24.1523C41.377 24.3438 41.291 24.6035 41.291 24.9316V25.3652ZM38.332 26.3555L37.7168 25.9688L41.8828 19.3008L42.498 19.6875L38.332 26.3555ZM18.2988 39.3184C18.2988 39.0254 18.1875 38.7988 17.9648 38.6387C17.7461 38.4746 17.3613 38.334 16.8105 38.2168C16.2637 38.0996 15.8281 37.959 15.5039 37.7949C15.1836 37.6309 14.9453 37.4355 14.7891 37.209C14.6367 36.9824 14.5605 36.7129 14.5605 36.4004C14.5605 35.8809 14.7793 35.4414 15.2168 35.082C15.6582 34.7227 16.2207 34.543 16.9043 34.543C17.623 34.543 18.2051 34.7285 18.6504 35.0996C19.0996 35.4707 19.3242 35.9453 19.3242 36.5234H18.2344C18.2344 36.2266 18.1074 35.9707 17.8535 35.7559C17.6035 35.541 17.2871 35.4336 16.9043 35.4336C16.5098 35.4336 16.2012 35.5195 15.9785 35.6914C15.7559 35.8633 15.6445 36.0879 15.6445 36.3652C15.6445 36.627 15.748 36.8242 15.9551 36.957C16.1621 37.0898 16.5352 37.2168 17.0742 37.3379C17.6172 37.459 18.0566 37.6035 18.3926 37.7715C18.7285 37.9395 18.9766 38.1426 19.1367 38.3809C19.3008 38.6152 19.3828 38.9023 19.3828 39.2422C19.3828 39.8086 19.1562 40.2637 18.7031 40.6074C18.25 40.9473 17.6621 41.1172 16.9395 41.1172C16.4316 41.1172 15.9824 41.0273 15.5918 40.8477C15.2012 40.668 14.8945 40.418 14.6719 40.0977C14.4531 39.7734 14.3438 39.4238 14.3438 39.0488H15.4277C15.4473 39.4121 15.5918 39.7012 15.8613 39.916C16.1348 40.127 16.4941 40.2324 16.9395 40.2324C17.3496 40.2324 17.6777 40.1504 17.9238 39.9863C18.1738 39.8184 18.2988 39.5957 18.2988 39.3184ZM26.1504 37.9004C26.1504 38.8652 25.9297 39.6426 25.4883 40.2324C25.0469 40.8223 24.4492 41.1172 23.6953 41.1172C22.9258 41.1172 22.3203 40.873 21.8789 40.3848V43.4375H20.7949V34.6602H21.7852L21.8379 35.3633C22.2793 34.8164 22.8926 34.543 23.6777 34.543C24.4395 34.543 25.041 34.8301 25.4824 35.4043C25.9277 35.9785 26.1504 36.7773 26.1504 37.8008V37.9004ZM25.0664 37.7773C25.0664 37.0625 24.9141 36.498 24.6094 36.084C24.3047 35.6699 23.8867 35.4629 23.3555 35.4629C22.6992 35.4629 22.207 35.7539 21.8789 36.3359V39.3652C22.2031 39.9434 22.6992 40.2324 23.3672 40.2324C23.8867 40.2324 24.2988 40.0273 24.6035 39.6172C24.9121 39.2031 25.0664 38.5898 25.0664 37.7773ZM30.1641 41.1172C29.3047 41.1172 28.6055 40.8359 28.0664 40.2734C27.5273 39.707 27.2578 38.9512 27.2578 38.0059V37.8066C27.2578 37.1777 27.377 36.6172 27.6152 36.125C27.8574 35.6289 28.1934 35.2422 28.623 34.9648C29.0566 34.6836 29.5254 34.543 30.0293 34.543C30.8535 34.543 31.4941 34.8145 31.9512 35.3574C32.4082 35.9004 32.6367 36.6777 32.6367 37.6895V38.1406H28.3418C28.3574 38.7656 28.5391 39.2715 28.8867 39.6582C29.2383 40.041 29.6836 40.2324 30.2227 40.2324C30.6055 40.2324 30.9297 40.1543 31.1953 39.998C31.4609 39.8418 31.6934 39.6348 31.8926 39.377L32.5547 39.8926C32.0234 40.709 31.2266 41.1172 30.1641 41.1172ZM30.0293 35.4336C29.5918 35.4336 29.2246 35.5938 28.9277 35.9141C28.6309 36.2305 28.4473 36.6758 28.377 37.25H31.5527V37.168C31.5215 36.6172 31.373 36.1914 31.1074 35.8906C30.8418 35.5859 30.4824 35.4336 30.0293 35.4336ZM36.5273 41.1172C35.668 41.1172 34.9688 40.8359 34.4297 40.2734C33.8906 39.707 33.6211 38.9512 33.6211 38.0059V37.8066C33.6211 37.1777 33.7402 36.6172 33.9785 36.125C34.2207 35.6289 34.5566 35.2422 34.9863 34.9648C35.4199 34.6836 35.8887 34.543 36.3926 34.543C37.2168 34.543 37.8574 34.8145 38.3145 35.3574C38.7715 35.9004 39 36.6777 39 37.6895V38.1406H34.7051C34.7207 38.7656 34.9023 39.2715 35.25 39.6582C35.6016 40.041 36.0469 40.2324 36.5859 40.2324C36.9688 40.2324 37.293 40.1543 37.5586 39.998C37.8242 39.8418 38.0566 39.6348 38.2559 39.377L38.918 39.8926C38.3867 40.709 37.5898 41.1172 36.5273 41.1172ZM36.3926 35.4336C35.9551 35.4336 35.5879 35.5938 35.291 35.9141C34.9941 36.2305 34.8105 36.6758 34.7402 37.25H37.916V37.168C37.8848 36.6172 37.7363 36.1914 37.4707 35.8906C37.2051 35.5859 36.8457 35.4336 36.3926 35.4336ZM39.9961 37.7773C39.9961 36.8047 40.2266 36.0234 40.6875 35.4336C41.1484 34.8398 41.752 34.543 42.498 34.543C43.2402 34.543 43.8281 34.7969 44.2617 35.3047V32H45.3457V41H44.3496L44.2969 40.3203C43.8633 40.8516 43.2598 41.1172 42.4863 41.1172C41.752 41.1172 41.1523 40.8164 40.6875 40.2148C40.2266 39.6133 39.9961 38.8281 39.9961 37.8594V37.7773ZM41.0801 37.9004C41.0801 38.6191 41.2285 39.1816 41.5254 39.5879C41.8223 39.9941 42.2324 40.1973 42.7559 40.1973C43.4434 40.1973 43.9453 39.8887 44.2617 39.2715V36.3594C43.9375 35.7617 43.4395 35.4629 42.7676 35.4629C42.2363 35.4629 41.8223 35.668 41.5254 36.0781C41.2285 36.4883 41.0801 37.0957 41.0801 37.9004Z" fill="white"/>
<circle cx="30" cy="30" r="29" stroke="white" stroke-width="2"/>
</svg>
