<svg width="25" height="30" viewBox="0 0 25 30" fill="none" xmlns="http://www.w3.org/2000/svg">
<path fill-rule="evenodd" clip-rule="evenodd" d="M18 30H14.004H10.004C10.004 30 10.015 27.628 10.004 26C4.531 27.178 3.004 23 3.004 23C2.004 21 1.004 20 1.004 20C-0.995999 18.812 1.004 19 1.004 19C3.004 19 4.004 21 4.004 21C5.759 23.981 8.882 23.501 10.004 23C10.004 22 10.442 20.488 11.004 20C6.636 19.508 3 17 3 12C3 7 4.004 6 5.004 5C4.802 4.507 3.965 2.685 5.035 0C5.035 0 7 0 9 3C9.991 2.009 13 2 14.001 2C15 2 18.009 2.009 19 3C21 0 22.969 0 22.969 0C24.039 2.685 23.202 4.507 23 5C24 6 25 7 25 12C25 17 21.368 19.508 17 20C17.562 20.488 18 22.21 18 23V30Z" fill="#9B9B9B"/>
</svg>
