<svg width="60" height="67" viewBox="0 0 60 67" fill="none" xmlns="http://www.w3.org/2000/svg">
<g filter="url(#filter0_d)">
<path d="M34.1398 2.39454C33.0598 3.09766 31.4998 4.73829 30.7798 6.02735C29.2798 8.72266 28.1398 9.01563 27.5998 6.90625C27.0598 4.73829 23.9998 4.85547 22.9198 7.08204C21.7798 9.42579 22.4398 11.5938 24.2998 11.5938C25.0798 11.5938 25.9198 11.3008 26.0998 11.0078C26.2798 10.6563 26.7598 10.4219 27.0598 10.4219C28.3198 10.4219 28.1398 12.1797 26.4598 15.8711C25.0798 18.8008 24.4198 19.6797 23.6998 19.4453C23.2198 19.2695 22.7998 18.625 22.7998 18.0977C22.7998 16.8086 21.6598 15.6953 20.2798 15.6953C19.1398 15.6953 17.3998 18.4492 17.3998 20.3242C17.3998 22.0234 19.3198 22.9023 20.8198 21.8477C21.5398 21.3789 22.3198 21.2617 22.7998 21.5547C23.9998 22.2578 20.6398 30.4609 19.2598 30.2266C18.7198 30.1094 18.2398 29.4648 18.1198 28.7617C17.6998 25.8906 14.5798 25.5977 13.3198 28.3516C11.6998 31.75 13.1398 33.918 16.1398 32.6875C19.0198 31.5156 19.2598 32.3945 17.3998 36.6719C15.5398 40.8906 13.8598 41.8867 13.1998 39.1328C12.7198 37.0234 10.0198 36.7891 8.6998 38.7813C7.3198 40.832 7.7398 43.4688 9.4798 43.7031C10.2598 43.8203 11.2198 43.6445 11.6398 43.293C12.2998 42.7656 14.3998 42.9414 14.3998 43.5273C14.3998 43.5859 13.7398 45.168 12.8998 46.9844C12.0598 48.8594 11.5198 50.5586 11.6998 50.793C12.0598 51.3789 20.7598 57.2969 21.2398 57.2969C21.4198 57.2969 21.5998 55.1289 21.5998 52.4336C21.5998 48.2148 21.4798 47.5117 20.3398 46.8672C18.8998 45.9883 19.0198 43.9375 20.5798 43C21.2998 42.5313 21.8998 42.5313 22.6798 43C23.5198 43.5859 23.6998 44.7578 23.8798 51.0859C23.9998 58 24.1198 58.4688 25.1998 58.4688C26.3398 58.4688 26.3998 58 26.3998 47.7461C26.3998 37.6094 26.3398 37.0234 25.1398 36.3203C23.6998 35.4414 23.8198 33.3906 25.3798 32.4531C26.0998 31.9844 26.6998 31.9844 27.4798 32.4531C28.3798 33.0391 28.4998 34.4453 28.6798 45.8125C28.7998 58 28.8598 58.4688 29.9998 58.4688C31.1398 58.4688 31.1998 58 31.1998 42.4727C31.1998 27.0039 31.1398 26.4766 29.9398 25.7734C28.4998 24.8945 28.6198 22.8438 30.1798 21.9063C30.8998 21.4375 31.4998 21.4375 32.2798 21.9063C33.1798 22.4922 33.2998 24.1328 33.4798 40.5391C33.5998 58 33.6598 58.4688 34.7998 58.4688C35.9998 58.4688 35.9998 58 35.9998 37.1992C35.9998 16.3984 35.9998 15.9883 34.7398 15.2266C33.2998 14.3477 33.4198 12.2969 34.9798 11.3594C35.6998 10.8906 36.2998 10.8906 37.0798 11.3594C38.0398 11.9453 38.0998 13.7617 38.2798 33.8594L38.3998 55.7734L40.0798 53.1367C41.0398 51.7305 43.0798 49.4453 44.6998 48.0391L47.5798 45.5781L47.2198 41.5938C46.9798 39.4258 46.0198 34.6211 45.0598 30.8711C44.0998 27.1211 43.1398 22.3164 42.8998 20.207C42.4798 16.6328 42.5998 16.2227 44.0998 14.2891C47.3998 10.0703 46.3798 4.44532 41.9398 2.10157C39.2398 0.695316 36.5998 0.75391 34.1398 2.39454Z" fill="white"/>
</g>
<defs>
<filter id="filter0_d" x="-4" y="0.460938" width="68" height="66.5938" filterUnits="userSpaceOnUse" color-interpolation-filters="sRGB">
<feFlood flood-opacity="0" result="BackgroundImageFix"/>
<feColorMatrix in="SourceAlpha" type="matrix" values="0 0 0 0 0 0 0 0 0 0 0 0 0 0 0 0 0 0 127 0"/>
<feOffset dy="4"/>
<feGaussianBlur stdDeviation="2"/>
<feColorMatrix type="matrix" values="0 0 0 0 0.521569 0 0 0 0 0.0509804 0 0 0 0 0.886275 0 0 0 0.5 0"/>
<feBlend mode="normal" in2="BackgroundImageFix" result="effect1_dropShadow"/>
<feBlend mode="normal" in="SourceGraphic" in2="effect1_dropShadow" result="shape"/>
</filter>
</defs>
</svg>
