<svg width="60" height="60" viewBox="0 0 60 60" fill="none" xmlns="http://www.w3.org/2000/svg">
<path d="M4.73999 20.5793C5.39999 21.2393 5.63999 21.1793 6.23999 20.2193M4.73999 20.5793L4.67145 20.6522C4.67108 20.6518 4.6707 20.6515 4.67033 20.6511M4.73999 20.5793C2.69999 18.6593 10.62 8.57935 16.68 5.27935M4.73999 20.5793L16.68 5.27935M6.23999 20.2193L4.67033 20.6511M6.23999 20.2193C11.22 11.9394 14.88 8.33935 21 5.93935L6.23999 20.2193ZM4.67033 20.6511C4.83612 20.8168 4.98211 20.9442 5.11832 21.0231C5.25705 21.1034 5.39432 21.1382 5.53595 21.1041C5.67348 21.0709 5.79703 20.9766 5.91966 20.8403C6.04292 20.7032 6.17417 20.5133 6.32479 20.2724L6.32569 20.2709C11.2998 12.0006 14.9451 8.42121 21.0365 6.03245L21.0369 6.03228C23.3607 5.10872 26.6767 4.64435 30 4.64435C33.3232 4.64435 36.6393 5.10872 38.9631 6.03228C45.6575 8.72211 50.7372 13.8019 53.4271 20.4963C54.3506 22.8201 54.815 26.1361 54.815 29.4593C54.815 32.7826 54.3506 36.0986 53.4271 38.4224C50.7372 45.1168 45.6574 50.1966 38.963 52.8864C36.6392 53.81 33.3232 54.2743 30 54.2743C26.6767 54.2743 23.3607 53.81 21.0369 52.8864L21.0365 52.8862C14.9451 50.4975 11.2998 46.9181 6.32568 38.6478L6.32328 38.6438L6.32319 38.6439C6.17193 38.417 6.03657 38.2384 5.90811 38.1079C5.77986 37.9777 5.65236 37.8892 5.51575 37.8527C5.23469 37.7778 4.97224 37.9358 4.67309 38.205L4.66918 38.2085L4.66928 38.2086C4.39919 38.4787 4.31285 38.8841 4.3586 39.3671C4.40445 39.8513 4.58413 40.4311 4.86886 41.0742C5.43876 42.3614 6.43971 43.9249 7.68352 45.5257C10.1703 48.7262 13.6452 52.0979 16.6321 53.7271L16.6321 53.7271C33.313 62.8203 54.0873 52.6431 57.2186 33.796C59.5673 19.8842 50.3545 5.91417 36.5629 2.66202L36.5622 2.66185C31.8085 1.57873 27.1119 1.57801 22.8342 2.72273C21.0273 3.20457 18.2598 4.28734 16.6318 5.19173C13.5854 6.85076 10.0807 10.207 7.59373 13.3852C6.34987 14.9748 5.35613 16.5255 4.80108 17.8029C4.52377 18.4412 4.35333 19.0171 4.31903 19.4989C4.28479 19.9799 4.38571 20.3824 4.67033 20.6511ZM16.68 5.27935C18.3 4.37935 21.06 3.29935 22.86 2.81935C27.12 1.67935 31.8 1.67935 36.54 2.75935L16.68 5.27935Z" fill="white" stroke="white" stroke-width="0.2"/>
<path d="M30.2402 19.3193C30.0602 19.6793 31.6202 21.7793 33.9602 24.1193L38.0402 28.2593L20.4002 28.3793C5.1602 28.5593 2.7002 28.6793 2.7002 29.4593C2.7002 30.2393 5.1602 30.3593 20.4002 30.5393L38.0402 30.6593L33.9002 34.8593C30.6002 38.1593 29.8802 39.1793 30.4802 39.7793C31.0802 40.3793 32.4002 39.3593 36.7802 34.9793L42.3002 29.4593L36.9002 24.0593C33.9602 21.1193 31.3202 18.6593 31.0802 18.6593C30.8402 18.6593 30.4802 18.9593 30.2402 19.3193Z" fill="white" stroke="white" stroke-width="0.5"/>
</svg>
