<svg width="73" height="75" viewBox="0 0 73 75" fill="none" xmlns="http://www.w3.org/2000/svg">
<path d="M30.5837 0C14.6266 0 1.66016 12.9664 1.66016 28.9235C1.66016 44.8806 14.6266 57.8471 30.5837 57.8471C36.8974 57.8471 42.7326 55.8134 47.4912 52.3707L63.0813 67.2312L67.2314 63.0812L52.5422 47.7451C56.8887 42.6808 59.5072 36.1079 59.5072 28.9235C59.5072 12.9664 46.5408 0 30.5837 0ZM30.5837 3.40277C44.6998 3.40277 56.1044 14.8074 56.1044 28.9235C56.1044 43.0397 44.6998 54.4443 30.5837 54.4443C16.4675 54.4443 5.06292 43.0397 5.06292 28.9235C5.06292 14.8074 16.4675 3.40277 30.5837 3.40277Z" fill="white"/>
<path d="M31.0926 10.4844C33.4298 10.4844 34.1981 11.0709 35.1708 11.8135C36.4121 12.7615 37.8194 13.8361 41.3585 13.8427V19.2214C38.5517 19.2214 37.6389 18.4908 36.6721 17.7164C35.6344 16.8864 34.4581 15.945 31.9481 15.945C31.6684 15.945 31.3758 15.9887 31.0926 16.1045V10.4844ZM29.3816 38.4537V41.0639C29.3816 45.214 28.6724 47.6167 25.0494 47.6167C19.9712 47.6167 19.9712 45.0917 19.9712 43.2482C19.9712 41.788 19.9712 39.9718 25.1042 39.9718C27.1266 39.9718 28.4808 39.3536 29.3816 38.4537ZM31.0926 8.30014C29.7238 8.30014 29.3816 9.39227 29.3816 10.4844V33.419C29.3816 35.837 28.4979 37.7875 25.1042 37.7875C20.2612 37.7875 18.2603 39.3864 18.2603 43.2482C18.2603 45.8507 18.6786 49.8009 25.0494 49.8009C30.9686 49.8009 31.0926 43.993 31.0926 41.0639C31.0926 39.9423 31.0926 36.8013 31.0926 33.419V20.3135C31.0969 18.8337 31.2637 18.1293 31.9481 18.1293C36.3436 18.1293 35.2597 21.4056 41.3585 21.4056C41.3585 21.4056 43.0695 21.4056 43.0695 19.5501C43.0695 16.7597 43.0695 14.7852 43.0695 13.7258C43.0695 12.0516 42.4809 11.6584 41.391 11.6584C35.3059 11.6595 36.8022 8.30014 31.0926 8.30014Z" fill="white"/>
</svg>
