<svg width="61" height="61" viewBox="0 0 61 61" fill="none" xmlns="http://www.w3.org/2000/svg">
<path d="M23.5458 3.90899C18.8488 5.06799 14.4568 7.62999 10.5528 11.473C-0.0612147 22.209 -0.0612147 39.777 10.5528 50.513C21.7768 61.737 39.0398 61.859 50.2028 50.696C61.4268 39.472 61.1828 21.904 49.6538 10.863C42.3948 3.90899 33.4278 1.52999 23.5458 3.90899ZM36.9048 6.28799C49.6538 9.58199 57.8888 22.209 55.6928 35.019C54.9608 39.228 52.8258 44.23 50.5078 46.975L49.1048 48.683L43.6148 46.487C40.6258 45.267 37.7588 43.986 37.3928 43.681C36.2948 42.827 36.4168 38.618 37.5148 37.703C38.0028 37.337 38.5518 36.361 38.7958 35.69C39.0398 34.958 39.7108 33.738 40.3208 32.945C41.1138 31.908 41.4188 30.322 41.5408 27.15C41.7238 18.244 41.6628 17.024 40.6868 15.499C39.4058 13.547 32.8788 10.253 30.2558 10.253C26.0468 10.253 22.1428 12.449 20.3738 15.804C19.0928 18.305 19.3978 31.237 20.7398 33.006C21.3498 33.738 21.9598 34.958 22.2038 35.69C22.4478 36.361 22.9968 37.337 23.4848 37.703C24.6438 38.618 24.7048 42.827 23.6068 43.742C23.1188 44.108 20.9228 45.084 18.7268 45.938C16.4698 46.792 14.0908 47.768 13.3588 48.195C12.2608 48.927 11.9558 48.805 10.6138 47.158C6.28278 41.851 4.14779 33.799 5.30679 26.967C7.92978 11.9 22.2648 2.50599 36.9048 6.28799ZM35.3798 14.34C39.1008 16.414 40.0158 18.671 39.0398 23.673C38.6738 25.503 38.6128 27.882 38.7958 28.98C39.1008 30.505 38.9178 31.054 38.1858 31.359C37.6368 31.542 37.2098 32.213 37.2098 32.823C37.2098 33.372 36.5388 34.897 35.6848 36.117C34.6478 37.642 34.1598 39.167 34.1598 40.997C34.1598 44.535 35.9288 46.243 41.7848 48.378C44.2858 49.293 46.4818 50.208 46.6648 50.452C47.0918 51.245 40.6868 54.722 36.9048 55.698C32.3298 56.857 28.6698 56.857 24.0948 55.698C20.3738 54.722 13.9078 51.245 14.3348 50.513C14.5178 50.269 16.6528 49.354 19.1538 48.439C25.0098 46.304 26.8398 44.535 26.8398 40.997C26.8398 39.167 26.3518 37.642 25.3148 36.117C24.4608 34.897 23.7898 33.372 23.7898 32.762C23.7898 32.213 23.4848 31.603 23.0578 31.481C21.8378 31.054 21.7158 18.549 22.9358 16.292C24.8878 12.51 30.4388 11.656 35.3798 14.34Z" fill="white"/>
</svg>
