<svg width="60" height="60" viewBox="0 0 60 60" fill="none" xmlns="http://www.w3.org/2000/svg">
<circle cx="30" cy="30" r="29" stroke="white" stroke-width="2"/>
<path d="M32.4502 10.617C31.5502 11.205 30.2502 12.577 29.6502 13.655C28.4002 15.909 27.4502 16.154 27.0002 14.39C26.5502 12.577 24.0002 12.675 23.1002 14.537C22.1502 16.497 22.7002 18.31 24.2502 18.31C24.9002 18.31 25.6002 18.065 25.7502 17.82C25.9002 17.526 26.3002 17.33 26.5502 17.33C27.6002 17.33 27.4502 18.8 26.0502 21.887C24.9002 24.337 24.3502 25.072 23.7502 24.876C23.3502 24.729 23.0002 24.19 23.0002 23.749C23.0002 22.671 22.0502 21.74 20.9002 21.74C19.9502 21.74 18.5002 24.043 18.5002 25.611C18.5002 27.032 20.1002 27.767 21.3502 26.885C21.9502 26.493 22.6002 26.395 23.0002 26.64C24.0002 27.228 21.2002 34.088 20.0502 33.892C19.6002 33.794 19.2002 33.255 19.1002 32.667C18.7502 30.266 16.1502 30.021 15.1002 32.324C13.7502 35.166 14.9502 36.979 17.4502 35.95C19.8502 34.97 20.0502 35.705 18.5002 39.282C16.9502 42.81 15.5502 43.643 15.0002 41.34C14.6002 39.576 12.3502 39.38 11.2502 41.046C10.1002 42.761 10.4502 44.966 11.9002 45.162C12.5502 45.26 13.3502 45.113 13.7002 44.819C14.2502 44.378 16.0002 44.525 16.0002 45.015C16.0002 45.064 15.4502 46.387 14.7502 47.906C14.0502 49.474 13.6002 50.895 13.7502 51.091C14.0502 51.581 21.3002 56.53 21.7002 56.53C21.8502 56.53 22.0002 54.717 22.0002 52.463C22.0002 48.935 21.9002 48.347 20.9502 47.808C19.7502 47.073 19.8502 45.358 21.1502 44.574C21.7502 44.182 22.2502 44.182 22.9002 44.574C23.6002 45.064 23.7502 46.044 23.9002 51.336C24.0002 57.118 24.1002 57.51 25.0002 57.51C25.9502 57.51 26.0002 57.118 26.0002 48.543C26.0002 40.066 25.9502 39.576 24.9502 38.988C23.7502 38.253 23.8502 36.538 25.1502 35.754C25.7502 35.362 26.2502 35.362 26.9002 35.754C27.6502 36.244 27.7502 37.42 27.9002 46.926C28.0002 57.118 28.0502 57.51 29.0002 57.51C29.9502 57.51 30.0002 57.118 30.0002 44.133C30.0002 31.197 29.9502 30.756 28.9502 30.168C27.7502 29.433 27.8502 27.718 29.1502 26.934C29.7502 26.542 30.2502 26.542 30.9002 26.934C31.6502 27.424 31.7502 28.796 31.9002 42.516C32.0002 57.118 32.0502 57.51 33.0002 57.51C34.0002 57.51 34.0002 57.118 34.0002 39.723C34.0002 22.328 34.0002 21.985 32.9502 21.348C31.7502 20.613 31.8502 18.898 33.1502 18.114C33.7502 17.722 34.2502 17.722 34.9002 18.114C35.7002 18.604 35.7502 20.123 35.9002 36.93L36.0002 55.256L37.4002 53.051C38.2002 51.875 39.9002 49.964 41.2502 48.788L43.6502 46.73L43.3502 43.398C43.1502 41.585 42.3502 37.567 41.5502 34.431C40.7502 31.295 39.9502 27.277 39.7502 25.513C39.4002 22.524 39.5002 22.181 40.7502 20.564C43.5002 17.036 42.6502 12.332 38.9502 10.372C36.7002 9.19601 34.5002 9.24501 32.4502 10.617Z" fill="white"/>
</svg>
