<svg width="60" height="60" viewBox="0 0 60 60" fill="none" xmlns="http://www.w3.org/2000/svg">
<path d="M20.1854 16.0781V21.1562H18.1854C15.0854 21.1562 14.8521 21.6217 14.8521 27.9271C14.8521 32.709 14.8854 33.0052 15.5187 33.0052C16.1187 33.0052 16.1854 32.6666 16.2521 28.0117L16.3521 23.0605L18.2854 22.9336C20.0187 22.8066 20.1854 22.8913 20.1854 23.6953C20.1854 24.5417 20.3187 24.5417 29.5187 24.5417C38.7188 24.5417 38.8521 24.5417 38.8521 23.6953C38.8521 22.8913 39.0188 22.8066 40.7854 22.9336L42.6854 23.0605L42.7854 28.0117C42.8521 32.6666 42.9188 33.0052 43.5188 33.0052C44.1521 33.0052 44.1854 32.709 44.1854 27.9271C44.1854 21.6217 43.9521 21.1562 40.8521 21.1562H38.8521V16.0781V11H29.5187H20.1854V16.0781ZM37.5187 17.7708V22.8489H29.5187H21.5187V17.7708V12.6927H29.5187H37.5187V17.7708Z" fill="white"/>
<path d="M18.4184 29.0697C18.2851 29.1966 18.1851 30.1699 18.1851 31.1855C18.1851 32.709 18.2851 33.0052 18.8517 33.0052C19.3851 33.0052 19.5184 32.709 19.5184 31.7357V30.4661H29.5184H39.5184V31.7357C39.5184 32.7513 39.6518 33.0052 40.2184 33.0052C40.8184 33.0052 40.8851 32.7936 40.7851 30.9739L40.6851 28.985L29.6518 28.8581C23.5851 28.8158 18.5517 28.9004 18.4184 29.0697Z" fill="white"/>
<path d="M13.0187 35.1212C12.752 35.6713 15.4187 45.1081 16.2853 46.7162C17.5187 48.959 18.2187 49.0859 29.5187 49.0859C40.8187 49.0859 41.5187 48.959 42.752 46.7162C43.6187 45.1081 46.2854 35.6713 46.0187 35.1212C45.752 34.5287 13.2853 34.5287 13.0187 35.1212ZM44.4187 36.8985C44.352 37.1947 43.7854 39.1413 43.2187 41.2572C42.5187 43.7539 41.7854 45.4889 41.152 46.2083L40.1854 47.3932H29.5187H18.852L17.8853 46.2083C17.252 45.4889 16.5187 43.7539 15.8187 41.2572C15.252 39.1413 14.6853 37.1947 14.6187 36.8985C14.4853 36.5176 17.5853 36.3907 29.5187 36.3907C41.452 36.3907 44.552 36.5176 44.4187 36.8985Z" fill="white"/>
<circle cx="30" cy="30" r="29" stroke="white" stroke-width="2"/>
</svg>
